<svg width="128" height="128" viewBox="0 0 128 128" fill="none" xmlns="http://www.w3.org/2000/svg">
<rect width="128" height="128" fill="white"/>
<rect width="128" height="128" fill="url(#paint0_linear)"/>
<path d="M96.2496 64.0003H85.6969C85.0209 62.6691 84.2314 61.4346 83.3832 60.2504L79.331 67.2714C80.9603 70.5132 81.9135 74.2883 81.9177 78.3407L89.0816 78.3323C89.0774 75.8505 88.775 73.4613 88.2543 71.1684H91.8153L98.9875 85.5003H29.0115L36.1796 71.1684H39.7405C39.224 73.4653 38.9175 75.8547 38.9175 78.3323H46.0856C46.0856 68.0233 52.166 59.394 60.2498 57.315L64.6379 49.7144C64.428 49.706 64.2222 49.664 64.0081 49.664C54.7194 49.664 46.6361 55.4379 42.2984 63.9959L31.75 64.0001L21 85.5001V107H107V85.5001L96.2496 64.0003ZM99.8315 99.8322H28.1677V92.6683H99.8358V99.8322H99.8315Z" fill="#2245F8"/>
<path d="M83.8408 30.7925L77.6344 27.2064L81.2163 21L99.831 31.75L96.2491 37.9564L90.0469 34.3745L68.8028 71.1685H60.5261L83.8408 30.7925Z" fill="#2245F8"/>
<defs>
<linearGradient id="paint0_linear" x1="13.4799" y1="72.4766" x2="113.166" y2="39.7138" gradientUnits="userSpaceOnUse">
<stop stop-color="white"/>
<stop offset="1" stop-color="#FFEB57"/>
</linearGradient>
</defs>
</svg>
